<svg xmlns="http://www.w3.org/2000/svg" viewBox="0 0 900 260" fill="none">
  <rect width="900" height="260" rx="16" fill="#F7FAFC"/>
  <g stroke="#D9E2EC" stroke-width="1">
    <path d="M0 30H900M0 60H900M0 90H900M0 120H900M0 150H900M0 180H900M0 210H900"/>
    <path d="M50 0V260M100 0V260M150 0V260M200 0V260M250 0V260M300 0V260M350 0V260M400 0V260M450 0V260M500 0V260M550 0V260M600 0V260M650 0V260M700 0V260M750 0V260M800 0V260M850 0V260"/>
  </g>
  <path d="M0 150H82L96 145L110 156L122 120L136 182L148 150H220L234 146L246 153L258 122L270 180L284 150H364L378 144L390 154L402 121L418 183L430 150H510L524 146L536 152L548 120L560 182L574 150H654L668 145L680 154L692 121L706 184L720 150H900" stroke="#0F766E" stroke-width="5" stroke-linecap="round" stroke-linejoin="round"/>
  <text x="24" y="34" font-family="Plus Jakarta Sans, Arial, sans-serif" font-size="18" fill="#1F2937">Lead II rhythm strip</text>
</svg>
