<svg xmlns="http://www.w3.org/2000/svg" viewBox="0 0 900 260" fill="none">
  <rect width="900" height="260" rx="16" fill="#FFF8F3"/>
  <g stroke="#F2D6C4" stroke-width="1">
    <path d="M0 30H900M0 60H900M0 90H900M0 120H900M0 150H900M0 180H900M0 210H900"/>
    <path d="M50 0V260M100 0V260M150 0V260M200 0V260M250 0V260M300 0V260M350 0V260M400 0V260M450 0V260M500 0V260M550 0V260M600 0V260M650 0V260M700 0V260M750 0V260M800 0V260M850 0V260"/>
  </g>
  <path d="M0 90C40 86 60 110 100 102C145 94 178 62 220 72C266 84 295 116 340 108C384 100 410 62 458 70C505 80 520 126 566 118C612 110 638 78 680 86C720 94 748 126 790 116C834 106 860 80 900 88" stroke="#9F1239" stroke-width="5" stroke-linecap="round"/>
  <path d="M0 182C40 168 66 190 108 176C150 162 186 198 228 184C270 170 304 206 346 190C388 174 424 208 466 194C506 182 536 212 578 198C620 184 652 208 694 194C736 178 768 204 810 190C846 178 874 194 900 186" stroke="#0F766E" stroke-width="4" stroke-linecap="round"/>
  <text x="24" y="34" font-family="Plus Jakarta Sans, Arial, sans-serif" font-size="18" fill="#1F2937">FHR / uterine activity tracing</text>
</svg>
